#N canvas 27 63 1920 1030 12;
#X obj 38 172 s bela_setTrill;
#X obj 41 219 r bela_trill;
#X obj 268 85 r bela_trillCreated;
#X obj 267 110 print bela_trillCreated;
#X obj 41 360 unpack f f f f, f 20;
#X obj 38 47 loadbang;
#X obj 447 86 loadbang;
#X msg 447 110 hw 0 0 0;
#X obj 447 134 send bela_setMidi;
#X obj 39 242 route mysquare0 mysquare1 mysquare2 mysquare3 mysquare4 mysquare5, f 67;
#X obj 428 280 s sq5;
#X obj 348 278 s sq4;
#X obj 39 276 s sq0;
#X obj 118 277 s sq1;
#X obj 194 277 s sq2;
#X obj 273 279 s sq3;
#X obj 41 328 r sq0;
#X obj 215 359 unpack f f f f, f 20;
#X obj 384 359 unpack f f f f, f 20;
#X obj 562 356 unpack f f f f, f 20;
#X obj 742 356 unpack f f f f, f 20;
#X obj 920 353 unpack f f f f, f 20;
#X obj 215 327 r sq1;
#X obj 920 321 r sq5;
#X obj 82 461 noteout 1;
#X obj 628 117 loadbang;
#X msg 628 141 127;
#X obj 628 165 send 1loadb;
#X obj 139 405 * 127;
#X obj 84 406 * 127;
#X obj 313 404 * 127;
#X obj 258 405 * 127;
#X obj 483 402 * 127;
#X obj 428 403 * 127;
#X obj 256 460 noteout 2;
#X obj 658 399 * 127;
#X obj 603 400 * 127;
#X obj 840 403 * 127;
#X obj 785 404 * 127;
#X obj 1015 400 * 127;
#X obj 960 401 * 127;
#X obj 958 456 noteout 6;
#X obj 426 458 noteout 3;
#X obj 601 455 noteout 4;
#X obj 783 459 noteout 5;
#X msg 39 73 new mysquare0 1 SQUARE 41 \, new mysquare1 1 SQUARE 42 \, new mysquare2 1 SQUARE 43 \, new mysquare3 1 SQUARE 44 \, new mysquare4 1 SQUARE 45 \, new mysquare5 1 SQUARE 46, f 27;
#X obj 128 682 sig~;
#X obj 128 653 +, f 10;
#X obj 127 711 dac~ 3;
#X obj 128 623 * 0.1;
#X obj 487 678 sig~;
#X obj 487 649 +, f 10;
#X obj 487 619 * 0.1;
#X obj 606 631 sig~;
#X obj 668 661 * -1;
#X obj 668 632 - 1;
#X obj 246 681 sig~;
#X obj 246 652 +, f 10;
#X obj 246 622 * 0.1;
#X obj 368 679 sig~;
#X obj 368 650 +, f 10;
#X obj 368 620 * 0.1;
#X obj 721 630 sig~;
#X obj 783 660 * -1;
#X obj 783 631 - 1;
#X obj 245 710 dac~ 4;
#X obj 367 708 dac~ 5;
#X obj 486 707 dac~ 6;
#X obj 606 661 dac~ 7;
#X obj 668 694 dac~ 8;
#X obj 721 660 dac~ 9;
#X obj 783 693 dac~ 10;
#X obj 384 327 r sq2;
#X obj 562 324 r sq3;
#X obj 742 324 r sq4;
#X obj 1052 461 noteout 7;
#X connect 1 0 9 0;
#X connect 2 0 3 0;
#X connect 4 1 29 0;
#X connect 4 1 49 0;
#X connect 4 2 28 0;
#X connect 4 2 47 1;
#X connect 5 0 45 0;
#X connect 6 0 7 0;
#X connect 7 0 8 0;
#X connect 9 0 12 0;
#X connect 9 1 13 0;
#X connect 9 2 14 0;
#X connect 9 3 15 0;
#X connect 9 4 11 0;
#X connect 9 5 10 0;
#X connect 16 0 4 0;
#X connect 17 1 31 0;
#X connect 17 1 58 0;
#X connect 17 2 30 0;
#X connect 17 2 57 1;
#X connect 18 1 33 0;
#X connect 18 1 61 0;
#X connect 18 2 32 0;
#X connect 18 2 60 1;
#X connect 19 1 36 0;
#X connect 19 1 52 0;
#X connect 19 2 35 0;
#X connect 19 2 51 1;
#X connect 20 0 53 0;
#X connect 20 1 38 0;
#X connect 20 2 37 0;
#X connect 20 2 55 0;
#X connect 21 0 62 0;
#X connect 21 0 75 0;
#X connect 21 1 40 0;
#X connect 21 2 64 0;
#X connect 21 2 39 0;
#X connect 22 0 17 0;
#X connect 23 0 21 0;
#X connect 25 0 26 0;
#X connect 26 0 27 0;
#X connect 28 0 24 1;
#X connect 29 0 24 0;
#X connect 30 0 34 1;
#X connect 31 0 34 0;
#X connect 32 0 42 1;
#X connect 33 0 42 0;
#X connect 35 0 43 1;
#X connect 36 0 43 0;
#X connect 37 0 44 1;
#X connect 38 0 44 0;
#X connect 39 0 41 1;
#X connect 40 0 41 0;
#X connect 45 0 0 0;
#X connect 46 0 48 0;
#X connect 47 0 46 0;
#X connect 49 0 47 0;
#X connect 50 0 67 0;
#X connect 51 0 50 0;
#X connect 52 0 51 0;
#X connect 53 0 68 0;
#X connect 54 0 69 0;
#X connect 55 0 54 0;
#X connect 56 0 65 0;
#X connect 57 0 56 0;
#X connect 58 0 57 0;
#X connect 59 0 66 0;
#X connect 60 0 59 0;
#X connect 61 0 60 0;
#X connect 62 0 70 0;
#X connect 63 0 71 0;
#X connect 64 0 63 0;
#X connect 72 0 18 0;
#X connect 73 0 19 0;
#X connect 74 0 20 0;
